<svg xmlns:xlink="http://www.w3.org/1999/xlink" xmlns="http://www.w3.org/2000/svg" viewBox="0 0 288.34 89.17">
    <defs>
        <style>
            .a{fill:none;}.b{fill:#9fa0a2;}.c{fill:#c88a27;}.d{fill:#8a8b8d;}.e{clip-path:url(#a);}.f{fill:url(#b);}
        </style>
        <clipPath id="a" transform="translate(-154.78 -117.49)">
            <rect class="a" x="201.39" y="180.11" width="199.55" height="43.88"
                  transform="translate(6.6 -9.5) rotate(1.83)"/>
        </clipPath>
        <linearGradient id="b" x1="208.23" y1="166.2" x2="388.14" y2="171.95" gradientUnits="userSpaceOnUse">
            <stop offset="0" stop-color="#fff"/>
            <stop offset="0.12" stop-color="#c88a27"/>
            <stop offset="0.83" stop-color="#a8a8a8"/>
            <stop offset="1" stop-color="#fff"/>
        </linearGradient>
    </defs>
    <title>logo-SchaffrathNumis_2017</title>
    <path class="b"
          d="M361.68,187.19a2.77,2.77,0,0,0,1.55.45,2.61,2.61,0,0,0,1.88-.75,2.4,2.4,0,0,0,.77-1.77,2.57,2.57,0,0,0-.45-1.41,6.81,6.81,0,0,0-1.67-1.6q-1-.76-1.21-.94a2.2,2.2,0,0,1-.46-.62A1.45,1.45,0,0,1,362,180a1.13,1.13,0,0,1,.36-.85,1.28,1.28,0,0,1,.92-.34,1.55,1.55,0,0,1,.81.22,3.67,3.67,0,0,1,.9.92l.76-.58a4.23,4.23,0,0,0-1.22-1.2,2.46,2.46,0,0,0-1.24-.33,2.39,2.39,0,0,0-1.16.29,2.09,2.09,0,0,0-.82.79A2.18,2.18,0,0,0,361,180a2.34,2.34,0,0,0,.5,1.43,8.18,8.18,0,0,0,1.46,1.28,7.67,7.67,0,0,1,1.61,1.5,1.59,1.59,0,0,1,.32.92,1.52,1.52,0,0,1-.22.79,1.56,1.56,0,0,1-.63.59,1.86,1.86,0,0,1-.89.22q-1.1,0-1.94-1.55l-.8.48a4.16,4.16,0,0,0,1.28,1.52m-7.3.22h5.33v-.92h-4.39v-3.67h4.39v-.92h-4.39V179h4.43V178h-5.37Zm-7.71,0h1V183l4.1,4.36H353l-4.85-5.17,4.5-4.2h-1.25l-3.75,3.52V178h-1Zm-3.08,0h.94V178h-.94ZM339.34,179v8.45h1V179h2.09V178h-5.14V179Zm-9.84,8.45v-7.09l6.18,7.09h.21V178H335v7.17L328.74,178h-.2v9.37Zm-6.68-5.69h-4.57l2.29-4.84ZM320.38,174l-6.32,13.38h1.49l2.08-4.4h5.76l2.1,4.4h1.44L320.7,174Zm-19.09,8.42,2.11,2.17a11.16,11.16,0,0,1-2.46,1.58,3.51,3.51,0,0,1-1.39.29,2.27,2.27,0,0,1-1.59-.59,1.78,1.78,0,0,1-.65-1.35,2.51,2.51,0,0,1,.53-1.41,10.82,10.82,0,0,1,2.23-2q.67.77,1.22,1.35M299,177.63a1.34,1.34,0,0,1-.18-.68,1,1,0,0,1,.45-.82,1.85,1.85,0,0,1,1.16-.35,2,2,0,0,1,1.2.34,1,1,0,0,1,.45.8,1.71,1.71,0,0,1-.35.92,6.66,6.66,0,0,1-1.47,1.48,10.76,10.76,0,0,1-1.26-1.69m5.45,6.17-1.33-1.35-2-2.13a9.56,9.56,0,0,0,1.87-1.94,2.73,2.73,0,0,0,.47-1.43,2.19,2.19,0,0,0-.36-1.21,2.53,2.53,0,0,0-1.06-.91,3.45,3.45,0,0,0-1.53-.34,3.29,3.29,0,0,0-2.22.76,2.07,2.07,0,0,0-.77,1.65,2.71,2.71,0,0,0,.31,1.2,12.13,12.13,0,0,0,1.41,2,11.7,11.7,0,0,0-2.58,2.54,3.74,3.74,0,0,0-.63,2,2.92,2.92,0,0,0,.94,2.22,3.46,3.46,0,0,0,2.48.89,6,6,0,0,0,2.21-.41,11.44,11.44,0,0,0,2.72-1.76l1.78,1.83H308q-.5-.58-1.19-1.27-.88-.88-1.42-1.38a20.7,20.7,0,0,0,1.66-1.34l-.91-1a21.49,21.49,0,0,1-1.68,1.35m-22.76,3.6v-7.09l6.18,7.09h.21V178h-.93v7.17L280.9,178h-.2v9.37Zm-8,0H279v-.92h-4.39v-3.67H279v-.92h-4.39V179h4.43V178H273.7Zm-3.1-8.47-4,8.47h5.17v-.92H268.1L272,178h-4.95v.9Zm-11.84,8.47v-7.09l6.18,7.09h.21V178h-.93v7.17L258,178h-.2v9.37Zm-5.59-11.35a.74.74,0,1,0,.52-.22.71.71,0,0,0-.52.22m-2.59,0a.74.74,0,1,0,.52-.22.71.71,0,0,0-.52.22m-1.29,7.63a7.59,7.59,0,0,0,.17,2,2.6,2.6,0,0,0,1.08,1.43,3.4,3.4,0,0,0,1.94.54,2.81,2.81,0,0,0,1.78-.57,2.76,2.76,0,0,0,1-1.35,6.93,6.93,0,0,0,.24-2V178h-.94v5.66a7,7,0,0,1-.1,1.47,2.23,2.23,0,0,1-.42.85,2,2,0,0,1-.71.55,2.08,2.08,0,0,1-.89.2,2.45,2.45,0,0,1-1.06-.25,1.92,1.92,0,0,1-.78-.62,2.08,2.08,0,0,1-.32-.93,11.51,11.51,0,0,1,0-1.26V178h-.94Zm-16,3.71,1.31-9.64,4.79,9.64h.34l4.73-9.57,1.32,9.57h1.31L245.19,174H245l-5.39,11-5.44-11h-.22L232,187.4Z"
          transform="translate(-154.78 -117.49)"/>
    <circle class="c" cx="423.34" cy="125.29" r="3.68" transform="translate(-33.02 330.23) rotate(-63.4)"/>
    <path class="c"
          d="M442.4,133.26c0-.27-.09-.5-.32-.5s-.54.23-1,.59a2.5,2.5,0,0,1-1,.72,1.64,1.64,0,0,1-.68-.27,4.49,4.49,0,0,0-2.53-1c-2.31,0-4.16,1.36-4.16,5.66,0,3.3.9,6.74,3.35,11.91,2.58,5.43,3.94,8.74,3.94,11.77,0,1.4-.45,2.35-1.31,2.35-2.67,0-4.07-5.75-4.89-9.37,0-.14-.14-.32-.27-.32s-.23.18-.23.32v11.41c0,.14,0,.23.23.23s.36-.18.54-.32c.9-.68,1.27-1,1.45-1a2.5,2.5,0,0,1,.9.45,4.28,4.28,0,0,0,2.53.86c1.67,0,4.17-1.45,4.17-6.25,0-3.58-.36-5.07-3.53-11.77-3.35-7.11-3.94-9.32-3.94-11.54,0-1.18.09-2.13,1.22-2.13,2.08,0,4.25,5.7,5,9.37,0,.18.14.32.27.32s.27-.09.27-.23Zm-20.76,30.19a1.65,1.65,0,0,1-.41,1.27L419.87,166c-.09.14-.32.27-.32.41a.26.26,0,0,0,.27.27h7.11a.26.26,0,0,0,.27-.27c0-.14-.23-.27-.32-.41l-1.36-1.31a1.66,1.66,0,0,1-.41-1.27V136a1.66,1.66,0,0,1,.41-1.27l1.36-1.31c.09-.14.32-.27.32-.41a.26.26,0,0,0-.27-.27h-7.11a.26.26,0,0,0-.27.27c0,.14.23.27.32.41l1.36,1.31a1.66,1.66,0,0,1,.41,1.27Zm-25.47-30.69a.25.25,0,0,0-.27.23c0,.18.23.32.32.45l1.13,1.31a1.93,1.93,0,0,1,.41,1.27v27.43a1.93,1.93,0,0,1-.41,1.27L396.21,166c-.09.14-.32.27-.32.45a.25.25,0,0,0,.27.23h5.57a.25.25,0,0,0,.27-.23c0-.18-.18-.32-.32-.5l-1-1.22a2,2,0,0,1-.32-1.31V141.54h.09l3.67,24.76c0,.23.09.41.23.41h1c.23,0,.32-.14.36-.36l3.44-24.81h.09v21.91a2,2,0,0,1-.32,1.31L408,166c-.14.18-.32.32-.32.5s0,.23.27.23h6.34a.25.25,0,0,0,.27-.23c0-.18-.18-.32-.32-.45l-1.13-1.31a1.91,1.91,0,0,1-.36-1.27V136a1.91,1.91,0,0,1,.36-1.27l1.13-1.31c.14-.14.32-.27.32-.45a.25.25,0,0,0-.27-.23h-5.66c-.32,0-.45.32-.5.77l-2.76,19.6h-.09l-3-19.6c0-.45-.23-.77-.63-.77Zm-17.55,29.06c0,2.81,1.86,4.89,5.43,4.89a4.91,4.91,0,0,0,5.25-4.89V136a2,2,0,0,1,.36-1.27l1.4-1.31a.62.62,0,0,0,.23-.41.26.26,0,0,0-.27-.27h-6.2a.26.26,0,0,0-.27.27.62.62,0,0,0,.23.41l1.4,1.31a1.77,1.77,0,0,1,.36,1.27v24.62c0,2-.45,3.8-2.13,3.8-2.13,0-2.31-1.81-2.31-3.8V136a2,2,0,0,1,.36-1.27l1.4-1.31a.62.62,0,0,0,.23-.41.26.26,0,0,0-.27-.27h-6.93a.26.26,0,0,0-.27.27.63.63,0,0,0,.23.41l1.4,1.31a1.78,1.78,0,0,1,.36,1.27Zm-24,3a2.76,2.76,0,0,1-.58,1.81l-1.62,1.87c-.13.19-.45.39-.45.65a.36.36,0,0,0,.39.32h8.54a.36.36,0,0,0,.39-.32c0-.26-.26-.45-.45-.65l-1.75-1.94a2.25,2.25,0,0,1-.65-1.75v-35h.13l7.57,35.24c.19,1,.71,1.62,1.29,1.62h2.72c.45,0,.65-.26.65-.71V122.86a2.77,2.77,0,0,1,.58-1.81l1.62-1.87c.19-.19.45-.39.45-.65a.36.36,0,0,0-.39-.32h-8.54a.36.36,0,0,0-.39.32c0,.26.32.45.45.65l1.81,1.94a2.22,2.22,0,0,1,.58,1.75v24.25h-.13l-5.95-27.81c-.13-.65-.32-1.1-.78-1.1h-7.76a.36.36,0,0,0-.39.32c0,.26.32.45.45.65l1.62,1.87a2.76,2.76,0,0,1,.58,1.81Z"
          transform="translate(-154.78 -117.49)"/>
    <path class="d"
          d="M332.4,148.24V136a1.65,1.65,0,0,1,.41-1.27l1.36-1.31c.09-.14.32-.27.32-.41a.26.26,0,0,0-.27-.27H327.1a.26.26,0,0,0-.27.27c0,.14.23.27.32.41l1.36,1.31a1.66,1.66,0,0,1,.41,1.27v27.43a1.66,1.66,0,0,1-.41,1.27L327.14,166c-.09.14-.32.27-.32.41a.26.26,0,0,0,.27.27h7.11a.26.26,0,0,0,.27-.27c0-.14-.23-.27-.32-.41l-1.36-1.31a1.66,1.66,0,0,1-.41-1.27V150.64H337v12.81a1.66,1.66,0,0,1-.41,1.27L335.25,166c-.09.14-.32.27-.32.41a.26.26,0,0,0,.27.27h7.11a.26.26,0,0,0,.27-.27c0-.14-.23-.27-.32-.41l-1.36-1.31a1.66,1.66,0,0,1-.41-1.27V136a1.66,1.66,0,0,1,.41-1.27l1.36-1.31c.09-.14.32-.27.32-.41a.26.26,0,0,0-.27-.27H335.2a.26.26,0,0,0-.27.27c0,.14.23.27.32.41l1.36,1.31A1.65,1.65,0,0,1,337,136v12.22Zm-19.13,15.21a1.65,1.65,0,0,1-.36,1.27L311.54,166c-.14.14-.32.27-.32.41a.24.24,0,0,0,.27.27h7a.24.24,0,0,0,.27-.27c0-.14-.18-.27-.32-.41l-1.36-1.31a1.64,1.64,0,0,1-.36-1.27V134.93h1.68c.27,0,.41.23.5.5l2.35,9a.34.34,0,0,0,.36.27c.18,0,.23-.09.23-.32V132.94a.21.21,0,0,0-.23-.18H308.37a.21.21,0,0,0-.23.18v11.45c0,.23,0,.32.23.32a.34.34,0,0,0,.36-.27l2.35-9c.09-.27.23-.5.5-.5h1.67Zm-16.83-7.11c-.09,0-.18-.09-.14-.27l1.49-11.14h.09L299.47,156c0,.18,0,.32-.18.32Zm4.17,7.56a1.09,1.09,0,0,1-.23.9L299.15,166c-.14.14-.32.27-.32.41s.09.27.32.27h6.52c.23,0,.32-.14.32-.27s-.14-.27-.27-.41l-1.31-1.18a1.88,1.88,0,0,1-.5-1.22l-4.3-30.37c0-.27-.18-.5-.41-.5h-1.67c-.23,0-.32.18-.36.41L293,163.58a1.88,1.88,0,0,1-.36,1.13L291.41,166c-.14.14-.32.32-.32.45a.26.26,0,0,0,.27.27h5.21c.23,0,.32-.14.32-.27s-.27-.32-.45-.54l-1-1a1,1,0,0,1-.23-.82l.68-5c0-.18.14-.32.27-.32h3.35c.23,0,.36.18.41.41ZM277.85,135h.68c2.22,0,3.12,1.49,3.12,6.11,0,5.43-.9,7.2-3.12,7.2h-.68Zm0,15.57h.77c1.58,0,2.81,1.49,2.81,3.49v9.73a2.66,2.66,0,0,0,2.9,2.9h2.35c.23,0,.45,0,.45-.14s-.18-.32-.36-.5l-1.45-1.54a1.18,1.18,0,0,1-.41-.81v-9.46a5.61,5.61,0,0,0-2.9-5.07c1.58-1,3.35-3,3.35-8.06,0-5.89-2.45-8.37-7.15-8.37h-5.66a.26.26,0,0,0-.27.27c0,.14.23.27.32.41l1.36,1.31a1.66,1.66,0,0,1,.41,1.27v27.43a1.66,1.66,0,0,1-.41,1.27L272.59,166c-.09.14-.32.27-.32.41a.26.26,0,0,0,.27.27h7.11a.26.26,0,0,0,.27-.27c0-.14-.23-.27-.32-.41l-1.36-1.31a1.66,1.66,0,0,1-.41-1.27ZM260,135h2.58a1.12,1.12,0,0,1,1.18.86l2.44,8.51a.43.43,0,0,0,.36.32.21.21,0,0,0,.23-.23V133.16a.37.37,0,0,0-.36-.41H254.68a.26.26,0,0,0-.27.27c0,.14.23.27.32.41l1.36,1.31a1.66,1.66,0,0,1,.41,1.27v27.43a1.66,1.66,0,0,1-.41,1.27L254.73,166c-.09.18-.32.27-.32.41a.26.26,0,0,0,.27.27h7.42a.26.26,0,0,0,.27-.27c0-.14-.18-.27-.32-.41l-1.67-1.31a1.45,1.45,0,0,1-.41-1.27V150.68h1a.49.49,0,0,1,.5.32l1.58,3.3c.09.18.14.32.27.32s.18-.09.18-.27V144.8c0-.18-.09-.27-.23-.27s-.23.14-.32.32L261.47,148a.49.49,0,0,1-.5.32h-1Zm-16.57,0H246a1.13,1.13,0,0,1,1.18.86l2.44,8.51a.43.43,0,0,0,.36.32.21.21,0,0,0,.23-.23V133.16a.37.37,0,0,0-.36-.41H238.11a.26.26,0,0,0-.27.27c0,.14.23.27.32.41l1.36,1.31a1.65,1.65,0,0,1,.41,1.27v27.43a1.66,1.66,0,0,1-.41,1.27L238.15,166c-.09.18-.32.27-.32.41a.26.26,0,0,0,.27.27h7.42a.26.26,0,0,0,.27-.27c0-.14-.18-.27-.32-.41l-1.67-1.31c-.36-.27-.41-.73-.41-1.27V150.68h1a.49.49,0,0,1,.5.32l1.58,3.3c.09.18.14.32.27.32s.18-.09.18-.27V144.8c0-.18-.09-.27-.23-.27s-.23.14-.32.32L244.9,148a.49.49,0,0,1-.5.32h-1Zm-19.63,21.32c-.09,0-.18-.09-.14-.27l1.49-11.14h.09L226.81,156c0,.18,0,.32-.18.32Zm4.17,7.56a1.09,1.09,0,0,1-.23.9L226.49,166c-.14.14-.32.27-.32.41s.09.27.32.27H233c.23,0,.32-.14.32-.27s-.14-.27-.27-.41l-1.31-1.18a1.88,1.88,0,0,1-.5-1.22l-4.3-30.37c0-.27-.18-.5-.41-.5h-1.67c-.23,0-.32.18-.36.41l-4.12,30.42a1.88,1.88,0,0,1-.36,1.13L218.75,166c-.14.14-.32.32-.32.45a.26.26,0,0,0,.27.27h5.21c.23,0,.32-.14.32-.27s-.27-.32-.45-.54l-1-1a1,1,0,0,1-.23-.82l.68-5c0-.18.14-.32.27-.32h3.35c.23,0,.36.18.41.41Zm-24.2-15.66V136a1.66,1.66,0,0,1,.41-1.27l1.36-1.31c.09-.14.32-.27.32-.41a.26.26,0,0,0-.27-.27h-7.11a.26.26,0,0,0-.27.27c0,.14.23.27.32.41l1.36,1.31a1.65,1.65,0,0,1,.41,1.27v27.43a1.66,1.66,0,0,1-.41,1.27L198.48,166c-.09.14-.32.27-.32.41a.26.26,0,0,0,.27.27h7.11a.26.26,0,0,0,.27-.27c0-.14-.23-.27-.32-.41l-1.36-1.31a1.66,1.66,0,0,1-.41-1.27V150.64h4.62v12.81a1.66,1.66,0,0,1-.41,1.27L206.59,166c-.09.14-.32.27-.32.41a.26.26,0,0,0,.27.27h7.11a.26.26,0,0,0,.27-.27c0-.14-.23-.27-.32-.41l-1.36-1.31a1.66,1.66,0,0,1-.41-1.27V136a1.66,1.66,0,0,1,.41-1.27l1.36-1.31c.09-.14.32-.27.32-.41a.26.26,0,0,0-.27-.27h-7.11a.26.26,0,0,0-.27.27c0,.14.23.27.32.41l1.36,1.31a1.66,1.66,0,0,1,.41,1.27v12.22Zm-11.08-14.71c0-.45,0-.77-.32-.77s-.59.36-.86.68a1.34,1.34,0,0,1-.86.54,1.15,1.15,0,0,1-.77-.27,3.72,3.72,0,0,0-2.17-1c-5.66,0-5.89,10.5-5.89,16.07,0,7.56.59,17.88,5.89,17.88,4,0,5-4.25,5-11,0-.27-.09-.41-.32-.41a.33.33,0,0,0-.36.36c0,.41-1,8.74-3.44,8.74-2,0-3-2-3-15.57,0-9.55.36-13.85,2.35-13.85,2.31,0,3.62,5.39,4.17,9.19,0,.27.14.5.36.5s.27-.18.27-.41Z"
          transform="translate(-154.78 -117.49)"/>
    <path class="d"
          d="M178.77,119.53c0-.43-.1-.8-.56-.85a3.88,3.88,0,0,0-2,.72,5.41,5.41,0,0,1-2.24.91,4,4,0,0,1-1.34-.57,10.8,10.8,0,0,0-5-2.17c-4.7-.49-8.7,1.24-9.41,8-.54,5.18.73,10.76,4.86,19.37,4.35,9.06,6.57,14.53,6.07,19.29-.23,2.2-1.31,3.59-3.06,3.41-5.43-.57-7.34-9.88-8.4-15.73-.07-.22-.22-.53-.5-.55a.45.45,0,0,0-.51.45l-1.88,17.88c0,.21.05.36.42.4a2.57,2.57,0,0,0,1.16-.38c2-.87,2.74-1.29,3.11-1.25a5.91,5.91,0,0,1,1.77.9,10.49,10.49,0,0,0,5,1.89c3.41.36,8.71-1.38,9.5-8.9.59-5.6.1-8-5.24-19.2-5.65-11.85-6.48-15.46-6.11-18.93.19-1.84.53-3.32,2.84-3.07,4.24.45,7.72,9.85,8.59,15.75a.62.62,0,0,0,.5.55c.37,0,.57-.08.59-.3Z"
          transform="translate(-154.78 -117.49)"/>
    <g class="e">
        <path class="f"
              d="M387.34,171.92a18.8,18.8,0,0,1-5,11.67,40.39,40.39,0,0,1-10.06,8.05,93.14,93.14,0,0,1-24,9.41c-16.68,4.34-34,5.87-51.24,5.58a214.29,214.29,0,0,1-25.8-2.07,160.49,160.49,0,0,1-25.35-5.61,94.39,94.39,0,0,1-23.77-10.86,41.85,41.85,0,0,1-10-8.92,18.56,18.56,0,0,1,.82-25.63,41.84,41.84,0,0,1,10.51-8.27,94.39,94.39,0,0,1,24.41-9.33,161.8,161.8,0,0,1,25.65-4,214.28,214.28,0,0,1,25.88-.42c17.21.8,34.41,3.44,50.78,8.83a93.13,93.13,0,0,1,23.33,10.92,40.39,40.39,0,0,1,9.52,8.68A18.8,18.8,0,0,1,387.34,171.92Zm-.2,0a18.56,18.56,0,0,0-4.29-11.79,40.1,40.1,0,0,0-9.5-8.56,92.74,92.74,0,0,0-23.28-10.75A165,165,0,0,0,325,135a213,213,0,0,0-51.34-1.61,165,165,0,0,0-25.36,4.23,92.68,92.68,0,0,0-23.9,9.26,40,40,0,0,0-10,7.93A16.82,16.82,0,0,0,213.7,178a40,40,0,0,0,9.47,8.55,92.68,92.68,0,0,0,23.26,10.76,165,165,0,0,0,25,5.84,213.05,213.05,0,0,0,25.62,2.38,213.06,213.06,0,0,0,25.72-.72,165,165,0,0,0,25.37-4.21,92.74,92.74,0,0,0,23.92-9.24,40.1,40.1,0,0,0,10-7.94A18.56,18.56,0,0,0,387.14,171.91Z"
              transform="translate(-154.78 -117.49)"/>
    </g>
</svg>